<svg xmlns="http://www.w3.org/2000/svg" width="512" height="512" viewBox="0 0
512 512"><rect width="512" height="512" rx="64" style="fill:#0969da"/><path
d="M250.4,109.34a11.41,11.41,0,0,1,10.74,0l171.35,91.39a11.41,11.41,0,0,1,0,20.15L261.14,312.27a11.41,11.41,0,0,1-10.74,0L79,220.88a11.42,11.42,0,0,1,0-20.15Z"
style="fill:#fff"/><path
d="M121.54,269.45,79,292.12a11.42,11.42,0,0,0,0,20.15L250.4,403.66a11.41,11.41,0,0,0,10.74,0l171.35-91.39a11.41,11.41,0,0,0,0-20.15L390,269.45l-118.12,63a34.29,34.29,0,0,1-32.22,0Z"
style="fill:#fff"/></svg>
